
        <svg xmlns="http://www.w3.org/2000/svg" xmlns:xlink="http://www.w3.org/1999/xlink" version="1.1" width="3162.08104052026" 
        height="671.6181513691789" viewBox="0 0 3162.08104052026 671.6181513691789">
			
			<g transform="scale(8.104052026013006) translate(10, 10)">
				<defs id="SvgjsDefs1153"></defs><g id="SvgjsG1154" featureKey="PG4fjM-0" transform="matrix(0.7110694270467632,0,0,0.7110694270467632,-3.155912746375492,-4.1606196772461645)" fill="#47abff"><g xmlns="http://www.w3.org/2000/svg"><g><g><g><path d="M51.5,85.2c-0.4-0.5-0.8-0.2-0.8-0.5c-2.4,0.6-6.9-1-8.8-0.8c0.4-0.6-0.6-0.5-0.6-0.9c-0.4,0.6-0.8,0-1.4,0.2      c-0.6-1.5-3-0.4-3.3-2.3c-1.4,0-1.9-0.8-3.3-1.6c0.1-0.1,0.2-0.1,0.3-0.2c-0.7-0.1-0.7-0.5-1.3-0.5l0.2-0.4      c-1.1-0.2-1.5-1.9-3.1-2.5c-0.5-0.1-1.6-1.8-2.2-2.2c-0.3-0.2-0.8-0.2-0.1-0.3c-0.1-0.1-0.1-0.3,0-0.4c-0.7-0.2-0.8-0.8-1.7-1.1      c-0.1-0.3,0.2-0.5,0-0.7c-0.2-0.1-0.5,0.1-0.7,0c-0.1,1.8,1.9,2,2.5,3.5c-0.2-0.2-0.5-0.8-0.7-0.4c-0.1,0.3,0.8,1.4,0.8,0.8      c-0.3,0.2-0.4-0.3-0.2-0.4c0.3,0.5,0.9,0.4,0.9,0.8c-0.3,0.3-0.7-0.3-0.6,0.2c0.9,0.5,0.8,1,1.3,1.7c-0.4-0.5-0.5,0.4-0.9,0      c-0.1-1.5-1.8-1.2-1.8-2.7c-0.2-0.5-0.4-0.1-0.7-0.3c0.4-0.4-1.2-1.8-1.2-1.3c-0.5-0.6-0.2-0.8-0.3-1.2      c-0.4-0.1-0.1,0.4-0.4,0.1c0.4-0.7-0.5-1.6-1.1-2.3l0.4-0.2c-0.7-0.4-0.8-1.2-1.3-2.1c-0.6,0.9,1.2,2.9,0.9,3.3      c0,0.1,0.7,0.9,0.9,1.3c0.8,1.4,1.4,3.1,2.5,3.9c-0.2-0.1-0.1-0.7,0.2-0.4c0,0.3-0.2,0.6-0.2,0.9c0.6,0.6,1.1,1.1,1.7,1.7      c-1.3-0.8-2.6-1.6-3.5-2.8c0.5-0.1,1,0.8,1.4,0.7c-1-0.8-0.7-1.1-1.1-2.1c-0.4-0.3,0.1,0.4-0.3,0.5c-1.3-1.2-2.3-1.9-2.9-3      c0.1-0.1,0.2-0.2,0.2-0.4c-0.1-0.1-0.1-0.1-0.2-0.2c0.6,0.6,0.8,1.1,1.5,1.2c-0.3-0.3,0-0.4-0.4-0.7c-0.2-0.4-0.5,0.2-0.7-0.1      c0.2-0.3,0-0.7,0-1c-0.2,0-0.4,0-0.5-0.3c-0.2-0.1-0.3,0-0.4,0.2c-0.1-0.1-0.1-0.3-0.2-0.4c0,0,0-0.1,0-0.1      c-0.1-0.1-0.2-0.3-0.3-0.4c-0.8-2.1-1.3-4.9-2.4-6.7c0.3-1.2-0.2-3.6-0.5-4.2c0.3-0.5,0.1-2.8-0.1-3.2c-0.5,0.2,0.1,1.3-0.4,1.6      c-0.5-2.2,0.3-4.7,0.1-6.7c0.2,0,0.4,0,0.4-0.1c-0.3-0.3,0.2-0.9,0.1-1.6c0.4-0.9-0.9,1.3-0.9,2.2c-0.1,0.2-0.5,0-0.4,0.5      c0,0.7,0.2,2.1-0.2,3.1c-0.2,0-0.2-0.2-0.4-0.1c-0.1,0.5-0.2,1.1-0.3,1.6c-0.1-0.2-0.2-0.5-0.2-0.6c-0.5-2.5,0-5.4-0.2-7.5      c0.4,0,0.4-0.6,0.7-0.8c-0.1,0.8-0.3,1.8,0.2,2c0.4-3.9,1.2-8.2,3-12.4c1.3-3.1,3.2-6.2,5.5-8.7c0.2,0.3-0.1,1,0,1.3      c2-2.1,3.3-4.6,5.5-6c0.1,0.5-0.9,0.9-0.9,1.3c0.9-0.9,1.2-0.6,2.2-0.9c0.3-0.4-0.4,0-0.5-0.4c0.6-0.4,1-0.9,1.4-1.2      c0,0.1-0.1,0.1-0.1,0.2c1.1-0.3,1.2-0.9,2-1.1c-0.1-0.1-0.3-0.2-0.6-0.1c0.2-0.1,0.5-0.3,0.8-0.4c-0.1,0-0.1,0.1-0.2,0.1      c0.6-0.3,0.1,0.1,0.1,0.3c0.1,0,0.2-0.1,0.2-0.1c-0.6,0.4-1,0.6-1.2,1.3c0.3-0.2,0.4,0,0.8-0.3c0.4-0.2-0.1-0.5,0.2-0.7      c0.3,0.2,0.7,0.1,1,0.1c0-0.2,0.1-0.4,0.3-0.5c0.1-0.2,0-0.3-0.1-0.3c0.1-0.1,0.2-0.1,0.4-0.2c0,0,0.1,0,0.1,0.1      c1.7-0.8,3.6-1.5,5.4-2.1c1.1-0.1,2.5-0.1,3.1-0.8c-0.2,0-0.4,0.1-0.5,0c0.1,0,0.3-0.1,0.4-0.1c0.2,0.2,0.5,0,0.2,0.4      c0.1,0,0.1,0,0.2-0.1c0,0.1,0,0.1,0.1,0.2c0.1,0,0.2-0.1,0.3-0.3c0.1,0,0.2,0,0.3-0.1c0,0-0.1,0.1-0.1,0.1      c0.8-0.2,1.5-0.1,2.6-0.3c0-0.1,0-0.2,0-0.3c0.2,0,0.3-0.1,0.5-0.1c0,0,0,0.1,0,0.1c0.4-0.2,0.8,0.2,0.8,0c0.1,0,0.1,0,0.2,0      c0,0.2-0.1,0.3-0.1,0.4c0.5,0,0.8,0,1-0.3c-0.1-0.1-0.2-0.1-0.3-0.1c0.2,0,0.4-0.1,0.6-0.2c0.3,0.1,0.4,0.2,0.4,0.6      c0.5-0.9,2.1,0.2,2.8,0c0.3,0,0.2-0.4,0.4-0.6c0.1,0,0.2,0,0.3,0c0.5,0.4,1.2,0.8,2.1,0.9c-0.8-0.2,0.1-0.3,0.2-0.4      c-0.2,0-0.2-0.1-0.2-0.2c0.3,0,0.6,0.1,0.9,0.1c0,0.2,0.1,0.3,0.3,0.3c0.2,0,0.2-0.1,0.2-0.3c0.3,0,0.5,0,0.8,0.1      c-0.1,0.4,0.5,0.5,0.7,0.8c-0.8-0.2-1.7-0.5-2,0c3.2,0.7,6.7,1.7,10.1,3.4c0,0,0,0,0,0.1c0,0,0.1,0,0.1,0      c0.6,0.3,1.2,0.6,1.8,0.9c0.4,0.2,0.7,0.4,1.1,0.7c0,0.1,0,0.2,0.2,0.2c0,0,0.1,0,0.1,0c0.4,0.3,0.8,0.5,1.2,0.8      c0.4,0.6,0.8,1.4,1.5,1.2c1.5,2.3,3.1,3.2,4.4,5.6c0.1-0.4,0.4,0.9,0.9,1c-0.8-0.1,0.5,0.5-0.3,0.4c0.7,0.7,0.9,1,1,1.8      c-0.2-0.4-0.3-0.5-0.4-0.1c-0.1,0.6,0.7-0.1,1,0.5c-0.6,0-0.4,0.4-0.3,0.9c0.3-0.3,0.2-0.6,0.5-0.5c0.4,0.4-0.2,0.5-0.1,0.8      c0.3-0.4,0.4-0.2,0.8,0c-0.5,0.1,0.3,0.8-0.3,0.5c0.4,0.5,0.5,0.8,0.3,1.3c-0.4-0.6-0.1-1-0.7-0.9c1.2,1,0.6,3.3,2,3.5      c-0.9,0.2,0,0.6-0.5,0.7c0.6,0.2,0.3,1,1,1.2c-0.1,0.5-0.3,0.8-0.4,1.3c0.3,0.4,0.4,1.2,0.9,1.3c-0.3,0.3-0.1,1.1-0.4,1.4      c0.4-0.2,0.6-0.2,0.9,0.2c-0.5,0.4-0.1,0.8-0.4,0.9c0.9,2.3-0.2,7,0.3,8.8c-0.6-0.3-0.4,0.7-0.8,0.7c0.7,0.3,0.1,0.8,0.4,1.3      c-1.4,0.8,0,3-1.9,3.5c0.2,1.4-0.6,2-1.2,3.5c-0.1-0.1-0.1-0.2-0.2-0.3c-0.1,0.7-0.5,0.8-0.3,1.4l-0.4-0.2      c0,1.1-1.7,1.7-2.1,3.4c-0.1,0.5-1.6,1.8-2,2.5c-0.2,0.3-0.1,0.8-0.3,0.1c-0.1,0.1-0.3,0.1-0.4,0.1c-0.1,0.7-0.7,0.9-0.9,1.8      c-0.2,0.1-0.5-0.2-0.7,0.1c0,0.2,0.2,0.5,0.1,0.7c1.8-0.1,1.8-2.2,3.2-2.9c-0.1,0.3-0.7,0.6-0.3,0.8c0.3,0,1.2-1,0.7-0.9      c0.3,0.2-0.3,0.4-0.4,0.3c0.5-0.4,0.3-0.9,0.7-1c0.3,0.2-0.3,0.7,0.3,0.6c0.4-0.9,0.9-1,1.5-1.5c-0.4,0.4,0.5,0.5,0.1,0.9      c-1.5,0.3-1,2-2.5,2.2c-0.4,0.3-0.1,0.4-0.2,0.7c-0.5-0.3-1.6,1.4-1.2,1.3c-0.5,0.5-0.8,0.3-1.2,0.4c-0.1,0.4,0.4,0.1,0.2,0.4      c-0.7-0.3-1.6,0.7-2.2,1.4l-0.3-0.3c-0.3,0.8-1.1,0.9-2,1.5c1,0.5,2.7-1.6,3.2-1.3c0.1,0,0.9-0.8,1.2-1.1c1.3-1,2.9-1.8,3.5-2.9      c-0.1,0.2-0.7,0.2-0.4-0.1c0.3-0.1,0.6,0.1,0.9,0.1c1.6-2.2,3.6-4,5.1-6.6c0.1-0.1,0.2-0.3,0.3-0.5c-0.2,0.6-0.5,1.1-0.7,1.7      c-1.6,1.1-2.2,4.3-4.1,4.8c0.1,1.1-0.9,1.4-1.4,2.7c-0.3,0.4-0.5-0.3-0.8,0.2c0.3,1.4-2.5,1.3-2.4,2.6c-0.2,0.1-0.5,0.2-0.7,0.4      c0,0-0.1,0-0.1,0c-0.1,0.1-0.1,0.1-0.2,0.2c-0.5,0.3-0.9,0.6-1.3,0.9c-1.4,0.8-3.3,1.4-4.8,2.2c0,0,0-0.1,0-0.1      c-0.4,0.2-0.9,0.1-0.8,0.5c-0.3,0.2-0.6,0.4-0.9,0.6c-0.1,0-0.1,0-0.2,0c0,0-0.1-0.1-0.2-0.1c-0.2,0-0.2,0-0.3,0.1      c-1.3,0.1-3,0.7-3.5,1.1c-0.5-0.3-2.8,0.2-3.2,0.4c0.2,0.3,0.8,0,1.3,0c-0.3,0.1-0.6,0.2-0.7,0.4c-0.1,0-0.1,0-0.2,0      c-0.1-0.3-0.4,0-0.5-0.1c0,0,0.1,0,0.1,0c-0.1-0.4-0.4-0.6-0.9-0.5c0,0.2,0,0.3-0.1,0.5c0.2,0,0.8-0.3,0.8,0      c-0.1,0-0.1,0.1,0,0.1c-0.2,0.2-0.5,0.2-0.7,0.3c-0.4,0-0.9,0-1.3,0c-0.1-0.1-0.2-0.1-0.4-0.2c-0.1,0.1-0.3,0.1-0.4,0.2      c-0.6,0-1.3,0.1-1.8,0.2c0-0.2,0-0.4-0.2-0.4c-0.3,0.4-0.9-0.1-1.6,0.1c-0.7-0.2,0.4,0.3,1.4,0.5C51.9,85,51.8,85.1,51.5,85.2       M37.5,86.6c-1.4-1.3-4.3-1.9-4.8-2.9c-0.8-0.1-2-1.6-3-1.8c0.5,0,0.1-0.3,0-0.5c-0.2,0.2-0.4,0.3-0.6,0.3      c0-0.8-0.8-1.3-1.5-1.8c0.5,0.3,0.9,0.5,1.5,0.6c0-0.2,0-0.4,0.2-0.4c0.7,0.7,1.5,1.4,2.4,2.1c1.2,1.1,7.4,3.9,8.5,4.4      c0,0-0.2,0.4-0.1,0.4c0.5,0.3,0.9-0.3,1,0.4C39.5,87.6,38.9,86.5,37.5,86.6 M83.6,63.4c0,0,0,0.1,0,0.1c0,0,0,0,0,0      C83.5,63.5,83.6,63.4,83.6,63.4 M43.2,17.1c-0.1,0.1-0.2,0.1-0.2,0.1C43,17.1,43.1,17.1,43.2,17.1 M41.3,17.6      C41.3,17.7,41.3,17.7,41.3,17.6C41.3,17.7,41.3,17.7,41.3,17.6C41.3,17.7,41.3,17.6,41.3,17.6 M34.7,19.7      C34.7,19.7,34.7,19.7,34.7,19.7c0.1-0.1,0.1-0.1,0.2-0.1C34.8,19.6,34.7,19.7,34.7,19.7 M50.7,16.4c-0.2,0-0.3,0-0.4-0.1      c0.1,0,0.2,0,0.3,0c0,0,0.1,0,0.1,0C50.7,16.3,50.7,16.3,50.7,16.4 M52.5,16.6c-0.1-0.1-0.4-0.2-0.7-0.2c0-0.1,0.1-0.2,0.1-0.2      c0.1,0,0.2,0,0.3,0c0,0,0.1,0,0.1,0.1c0,0,0,0,0-0.1c0.1,0,0.1,0,0.2,0C52.6,16.4,52.7,16.5,52.5,16.6 M55.8,16.9      c-0.5,0.1-0.8-0.1-1.3-0.4c0.3,0,0.7,0.1,1,0.2C55.6,16.7,55.7,16.8,55.8,16.9 M91.4,31.1c-0.2,0.1-0.3,0.1-0.5-0.3      c-1.6-3.4-4.5-8.3-8.7-12.4c-4.1-4.2-9.6-7.6-14.6-9.4c0.3,0.1,0.7,0.3,0.5,0.5c-4.4-1.7-8.6-2.7-12.6-3.1      C44.7,4.7,33.4,7,24.7,12.6c0.1,0.2,0.1,0.3-0.2,0.5c-3.2,2-7.7,5.5-11.3,10.1c-3.6,4.6-6.4,10.4-7.6,15.6      C5.7,38.5,5.8,38,6,38.2C3.4,48.5,4.1,57.3,7.7,64.9c0.2-0.2-0.5-1.2,0.1-1.1c0.4,1.1,0.9,2.3,1.5,3.4c0.7,1.6,1.5,3.7,2.6,4.2      C9.1,65.9,7.2,59.6,7,54c0.4,0.8,0.3,2.5,0.9,3.2c0.2-3.8-0.7-8.9,0.6-12.5c-0.3,1.9-0.5,4.5-0.3,7.1c0,1.9,0.9,7.2,1.5,7.7      c-0.1-0.1-0.1-0.6,0-0.6c0.3,0.6-0.4,0.9,0.1,1c0-0.2,0.1-0.2,0.2-0.2c1,2.2,2.3,5.6,3.3,7.3c1.2,2.2,2.8,4.2,4.6,6      c0,0.1,0.1,0.1,0.1,0.2c0.2,0.5,0.9,1.1,1.1,1.5c0.1,0.2-0.1,0.5,0,0.7c1.5,2.8,3.7,5.6,6.4,7.8c1.7,2,4.4,4.1,7.7,5.9      c3.2,1.7,6.9,3.1,10.3,3.9c2.4,0.6,5.3,0.7,7.1,1.1c2.4,0.5,6.6-0.2,8.7-0.6c12.6-1.9,25.1-10.5,31.4-22.9      C97.2,58.1,97,42.8,91.4,31.1"></path></g></g></g></g></g><g id="SvgjsG1155" featureKey="jxYttZ-0" transform="matrix(2.4803024600710954,0,0,2.4803024600710954,82.5196975399289,-0.458997081680371)" fill="#ffffff"><path d="M12.7 16.46 l1.46 1.46 c-1.38 1.52 -3.36 2.28 -5.54 2.28 c-4.22 0 -7.62 -3.34 -7.62 -7.7 c0 -4.34 3.4 -7.68 7.62 -7.68 c2.18 0 4.16 0.76 5.56 2.3 l-1.46 1.46 c-0.88 -1.28 -2.48 -1.92 -4.1 -1.92 c-3.1 0 -5.4 2.76 -5.4 5.84 c0 2.82 2.08 5.86 5.4 5.86 c1.44 0 3.28 -0.56 4.08 -1.9 z M18.94 10.12 l0 9.88 l-2.06 0 l0 -9.88 l2.06 0 z M19.04 6.5 c0 0.64 -0.5 1.14 -1.14 1.14 c-0.62 0 -1.12 -0.5 -1.12 -1.14 c0 -0.62 0.5 -1.12 1.12 -1.12 c0.64 0 1.14 0.5 1.14 1.12 z M27.78 10.24 l-0.44 1.62 c-0.14 -0.08 -0.58 -0.22 -0.94 -0.22 c-1.7 0 -2.5 1.62 -2.5 3.62 l0 4.74 l-2.06 0 l0 -9.88 l2.06 0 l0 1.4 c0.24 -0.92 1.3 -1.58 2.48 -1.58 c0.54 0 1.12 0.14 1.4 0.3 z M44.46 19.86 l-1.36 1.26 l-2.06 -2.22 c-1.24 0.94 -2.78 1.3 -4.44 1.3 c-4.22 0 -7.62 -3.34 -7.62 -7.7 s3.4 -7.68 7.62 -7.68 c4.2 0 7.62 3.32 7.62 7.68 c0 1.96 -0.7 3.76 -1.84 5.14 z M36.6 18.36 c1.12 0 2.2 -0.2 3.1 -0.9 l-2.26 -2.44 l1.36 -1.26 l2.14 2.34 c0.68 -1.04 1.04 -2.28 1.04 -3.6 c0 -3.06 -2.22 -5.84 -5.38 -5.84 c-3.18 0 -5.4 2.78 -5.4 5.84 c0 2.84 2.06 5.86 5.4 5.86 z M46.72 15.82 l0 -5.7 l2.06 0 l0 5.5 c0 2 0.62 2.88 2.32 2.88 c1.92 0 2.7 -1.34 2.7 -3.08 l0 -5.3 l2.06 0 l0 9.88 l-2.06 0 l0 -1.6 c-0.28 0.88 -1.52 1.68 -2.7 1.76 c-2.68 0.2 -4.38 -1.1 -4.38 -4.34 z M60.93999999999999 4.619999999999999 l0 15.38 l-2.08 0 l0 -15.38 l2.08 0 z M68.16 9.92 c2.84 0 3.98 1.72 3.98 3.18 l0 6.9 l-2.06 0 l0 -1.08 c-0.72 0.98 -2 1.26 -2.8 1.26 c-2.26 0 -3.74 -1.32 -3.74 -3.08 c0 -2.46 1.84 -3.34 3.74 -3.34 l2.8 0 l0 -0.66 c0 -0.62 -0.24 -1.48 -1.92 -1.48 c-0.94 0 -1.8 0.5 -2.36 1.28 l-1.42 -1.28 c0.94 -1.04 2.28 -1.7 3.78 -1.7 z M70.08 16.92 l0 -1.48 l-2.52 0 c-1.22 0 -2.08 0.62 -1.94 1.74 c0.12 0.94 0.88 1.32 1.94 1.32 c1.9 0 2.52 -0.9 2.52 -1.58 z M80.55999999999999 10.24 l-0.44 1.62 c-0.14 -0.08 -0.58 -0.22 -0.94 -0.22 c-1.7 0 -2.5 1.62 -2.5 3.62 l0 4.74 l-2.06 0 l0 -9.88 l2.06 0 l0 1.4 c0.24 -0.92 1.3 -1.58 2.48 -1.58 c0.54 0 1.12 0.14 1.4 0.3 z M90.99999999999999 11.58 c1.18 0.82 1.96 2.22 1.96 3.82 c0 2.54 -2 4.6 -4.46 4.6 l-5.94 0 l0 -15 l5.94 0 c2.02 0 3.64 1.72 3.64 3.8 c0 1.08 -0.44 2.08 -1.14 2.78 z M84.77999999999999 6.84 l0 3.96 l3.72 0 l0.06 0 c0.76 -0.06 1.36 -0.96 1.36 -2 c0 -1.06 -0.64 -1.96 -1.42 -1.96 l-3.72 0 z M88.49999999999999 18.16 c1.24 0 2.24 -1.24 2.24 -2.76 c0 -1.48 -0.96 -2.7 -2.14 -2.76 l-0.1 0 l-3.72 0 l0 5.52 l3.72 0 z M100.49999999999999 11.64 c-1.7 0 -3.08 1.42 -3.08 3.44 c0 2 1.38 3.44 3.08 3.44 s3.08 -1.44 3.08 -3.44 c0 -2.02 -1.38 -3.44 -3.08 -3.44 z M100.49999999999999 9.94 c2.84 0 5.14 2.2 5.14 5.14 s-2.3 5.12 -5.14 5.12 s-5.14 -2.18 -5.14 -5.12 s2.3 -5.14 5.14 -5.14 z M115.97999999999999 10.12 l-3.5 4.94 l3.5 4.94 l-2.36 0 l-2.2 -3.3 l-2.22 3.3 l-2.36 0 l3.52 -4.94 l-3.52 -4.94 l2.36 0 l2.22 3.3 l2.2 -3.3 l2.36 0 z"></path></g>
			</g>
		</svg>
	